# xmcd
#
# Track frame offsets: 
#        150
#        39307
#        50375
#        75980
#        94830
#        111210
#        138492
#        155465
#        181330
#        195470
#        217940
#        231140
#        258400
#        278005
#        293505
#        309890
#
# Disc length: 4358 seconds
#
# Revision: 7
# Processed by: cddbd v1.4PL0 Copyright (c) Steve Scherf et al.
# Submitted via: ExactAudioCopy v0.90b4
#
DISCID=cb110410
DTITLE=Bill Whelan - Riverdance
DYEAR=1900
DGENRE=Celtic
TTITLE0=Reel Around The Sun
TTITLE1=The Heart's Cry
TTITLE2=The Countess Cathleen/Women of the Sidhe
TTITLE3=Caoineadh Cú Chulainn (Lament)
TTITLE4=Shivna
TTITLE5=Firedance
TTITLE6=Slip Into Spring
TTITLE7=Riverdance
TTITLE8=American Wake (The Nova Scotia Set)
TTITLE9=Lift The Wings
TTITLE10=Macedonian Morning
TTITLE11=Marta's Dance/The Russian Dervish
TTITLE12=Andalucia
TTITLE13=Home And The Heartland
TTITLE14=The Harvest
TTITLE15=Riverdance Remix
EXTD=
EXTT0=
EXTT1=
EXTT2=
EXTT3=
EXTT4=
EXTT5=
EXTT6=
EXTT7=
EXTT8=
EXTT9=
EXTT10=
EXTT11=
EXTT12=
EXTT13=
EXTT14=
EXTT15=
PLAYORDER=
